<svg width="8" height="10" viewBox="0 0 8 10" fill="none" xmlns="http://www.w3.org/2000/svg">
<path d="M4.75 1V2.6C4.75 2.81217 4.82902 3.01566 4.96967 3.16569C5.11032 3.31571 5.30109 3.4 5.5 3.4H7M5.125 1H1.75C1.55109 1 1.36032 1.08429 1.21967 1.23431C1.07902 1.38434 1 1.58783 1 1.8V8.2C1 8.41217 1.07902 8.61566 1.21967 8.76569C1.36032 8.91571 1.55109 9 1.75 9H6.25C6.44891 9 6.63968 8.91571 6.78033 8.76569C6.92098 8.61566 7 8.41217 7 8.2V3L5.125 1Z" stroke="#D3DFE6" stroke-linecap="round" stroke-linejoin="round"/>
</svg>
